<svg width="2214" height="803" viewBox="0 0 2214 803" fill="none" xmlns="http://www.w3.org/2000/svg">
<path opacity="0.45" fill-rule="evenodd" clip-rule="evenodd" d="M115.343 77.6393C123.813 60.7001 141.126 50 160.065 50H674.261C711.43 50 735.605 89.1156 718.982 122.361L708.982 142.361C700.513 159.3 683.2 170 664.261 170H528.663L490.163 247H1244.76C1281.93 247 1306.1 286.116 1289.48 319.361L1279.48 339.361C1271.01 356.3 1253.7 367 1234.76 367H1183.66L1144.66 445H1303.16H1423.16H1585.26C1622.43 445 1646.6 484.116 1629.98 517.361L1619.98 537.361C1611.51 554.3 1594.2 565 1575.26 565H1363.16L1308.16 675H1470.76C1507.93 675 1532.1 714.116 1515.48 747.361L1505.48 767.361C1497.01 784.3 1479.7 795 1460.76 795H391.065C353.895 795 329.721 755.884 346.343 722.639L356.343 702.639C364.813 685.7 382.126 675 401.065 675H461.163L492.163 613H128.065C90.8954 613 66.7206 573.884 83.3431 540.639L93.3431 520.639C101.813 503.7 119.126 493 138.065 493H583.065H591.261H652.261C689.43 493 713.605 532.116 696.982 565.361L686.982 585.361C678.513 602.3 661.2 613 642.261 613H612.163L581.163 675H1188.16L1243.16 565H878.065C840.895 565 816.721 525.884 833.343 492.639L843.343 472.639C851.813 455.7 869.126 445 888.064 445H1024.66L1063.66 367H430.163H310.163H150.065C112.895 367 88.7206 327.884 105.343 294.639L115.343 274.639C123.813 257.7 141.126 247 160.065 247H370.163L408.663 170H150.065C112.895 170 88.7206 130.884 105.343 97.6393L115.343 77.6393ZM784.107 92.1115C790.883 78.5601 804.733 70 819.884 70H925.941C955.677 70 975.017 101.293 961.719 127.889C954.943 141.44 941.092 150 925.941 150H819.884C790.149 150 770.809 118.707 784.107 92.1115ZM1741.87 491.584C1746.95 481.42 1757.34 475 1768.7 475H1793.62C1815.92 475 1830.43 498.469 1820.45 518.416C1815.37 528.58 1804.98 535 1793.62 535H1768.7C1746.4 535 1731.9 511.531 1741.87 491.584ZM2135.88 663C2120.73 663 2106.88 671.56 2100.11 685.111C2086.81 711.708 2106.15 743 2135.88 743H2173.75C2188.9 743 2202.75 734.44 2209.52 720.889C2222.82 694.292 2203.48 663 2173.75 663H2135.88ZM1668.06 683C1649.13 683 1631.81 693.7 1623.34 710.639L1613.34 730.639C1596.72 763.884 1620.9 803 1658.06 803H1979.76C1998.7 803 2016.01 792.3 2024.48 775.361L2034.48 755.361C2051.1 722.116 2026.93 683 1989.76 683H1668.06Z" fill="#F4F8F7"/>
<path d="M1694.71 441.584C1699.79 431.42 1710.18 425 1721.54 425H1746.46C1768.76 425 1783.27 448.469 1773.29 468.416V468.416C1768.21 478.58 1757.82 485 1746.46 485H1721.54C1699.24 485 1684.73 461.531 1694.71 441.584V441.584Z" fill="#F4F8F7"/>
<path d="M736.944 42.1115C743.72 28.5601 757.57 20 772.721 20H878.779C908.514 20 927.854 51.2925 914.556 77.8885V77.8885C907.78 91.4399 893.93 100 878.779 100H772.721C742.986 100 723.646 68.7075 736.944 42.1115V42.1115Z" fill="#F4F8F7"/>
<path d="M2052.94 635.111C2059.72 621.56 2073.57 613 2088.72 613H2126.58C2156.32 613 2175.66 644.293 2162.36 670.889V670.889C2155.58 684.44 2141.73 693 2126.58 693H2088.72C2058.99 693 2039.65 661.707 2052.94 635.111V635.111Z" fill="#F4F8F7"/>
<path d="M403 37H523L383 317H263L403 37Z" fill="#F4F8F7"/>
<path d="M1065 220H1185L1045 500H925L1065 220Z" fill="#F4F8F7"/>
<path d="M1256 395H1376L1236 675H1116L1256 395Z" fill="#F4F8F7"/>
<path d="M491.18 470.639C499.65 453.7 516.963 443 535.902 443H544.098C581.267 443 605.442 482.116 588.82 515.361L498.82 695.361C490.35 712.3 473.037 723 454.098 723H445.902C408.733 723 384.558 683.884 401.18 650.639L491.18 470.639Z" fill="#F4F8F7"/>
<path d="M68.1803 27.6393C76.6499 10.7001 93.9631 0 112.902 0H627.098C664.267 0 688.442 39.1156 671.82 72.3607L661.82 92.3607C653.35 109.3 636.037 120 617.098 120H102.902C65.7326 120 41.5578 80.8844 58.1803 47.6393L68.1803 27.6393Z" fill="#F4F8F7"/>
<path d="M1576.18 660.639C1584.65 643.7 1601.96 633 1620.9 633H1942.6C1979.77 633 2003.94 672.116 1987.32 705.361L1977.32 725.361C1968.85 742.3 1951.54 753 1932.6 753H1610.9C1573.73 753 1549.56 713.884 1566.18 680.639L1576.18 660.639Z" fill="#F4F8F7"/>
<path d="M309.18 652.639C317.65 635.7 334.963 625 353.902 625H1423.6C1460.77 625 1484.94 664.116 1468.32 697.361L1458.32 717.361C1449.85 734.3 1432.54 745 1413.6 745H343.902C306.733 745 282.558 705.884 299.18 672.639L309.18 652.639Z" fill="#F4F8F7"/>
<path d="M68.1803 224.639C76.6499 207.7 93.9631 197 112.902 197H1197.6C1234.77 197 1258.94 236.116 1242.32 269.361L1232.32 289.361C1223.85 306.3 1206.54 317 1187.6 317H102.902C65.7326 317 41.5578 277.884 58.1803 244.639L68.1803 224.639Z" fill="#F4F8F7"/>
<path d="M796.18 422.639C804.65 405.7 821.963 395 840.902 395H1538.1C1575.27 395 1599.44 434.116 1582.82 467.361L1572.82 487.361C1564.35 504.3 1547.04 515 1528.1 515H830.902C793.733 515 769.558 475.884 786.18 442.639L796.18 422.639Z" fill="#F4F8F7"/>
<path d="M46.1803 470.639C54.6499 453.7 71.9631 443 90.9017 443H605.098C642.267 443 666.442 482.116 649.82 515.361L639.82 535.361C631.35 552.3 614.037 563 595.098 563H80.9017C43.7326 563 19.5578 523.884 36.1803 490.639L46.1803 470.639Z" fill="#F4F8F7"/>
</svg>
