<svg xmlns="http://www.w3.org/2000/svg" width="2096" height="803" fill="none" viewBox="0 0 2096 803"><path fill="#F4F8F7" fill-rule="evenodd" d="M-2.65686 77.6393C5.81274 60.7001 23.1259 50 42.0645 50H556.261C593.43 50 617.605 89.1156 600.982 122.361L590.982 142.361C582.513 159.3 565.2 170 546.261 170H410.663L372.163 247H1126.76C1163.93 247 1188.1 286.116 1171.48 319.361L1161.48 339.361C1153.01 356.3 1135.7 367 1116.76 367H1065.66L1026.66 445H1185.16H1305.16H1467.26C1504.43 445 1528.6 484.116 1511.98 517.361L1501.98 537.361C1493.51 554.3 1476.2 565 1457.26 565H1245.16L1190.16 675H1352.76C1389.93 675 1414.1 714.116 1397.48 747.361L1387.48 767.361C1379.01 784.3 1361.7 795 1342.76 795H273.065C235.895 795 211.721 755.884 228.343 722.639L238.343 702.639C246.813 685.7 264.126 675 283.065 675H343.163L374.163 613H10.0645C-27.1046 613 -51.2794 573.884 -34.6569 540.639L-24.6569 520.639C-16.1873 503.7 1.1259 493 20.0645 493H465.065H473.261H534.261C571.43 493 595.605 532.116 578.982 565.361L568.982 585.361C560.513 602.3 543.2 613 524.261 613H494.163L463.163 675H1070.16L1125.16 565H760.065C722.895 565 698.721 525.884 715.343 492.639L725.343 472.639C733.813 455.7 751.126 445 770.064 445H906.663L945.663 367H312.163H192.163H32.0645C-5.10455 367 -29.2794 327.884 -12.6569 294.639L-2.65686 274.639C5.81274 257.7 23.1259 247 42.0645 247H252.163L290.663 170H32.0645C-5.10457 170 -29.2794 130.884 -12.6569 97.6393L-2.65686 77.6393ZM666.107 92.1115C672.883 78.5601 686.733 70 701.884 70H807.941C837.677 70 857.017 101.293 843.719 127.889C836.943 141.44 823.092 150 807.941 150H701.884C672.149 150 652.809 118.707 666.107 92.1115ZM1623.87 491.584C1628.95 481.42 1639.34 475 1650.7 475H1675.62C1697.92 475 1712.43 498.469 1702.45 518.416C1697.37 528.58 1686.98 535 1675.62 535H1650.7C1628.4 535 1613.9 511.531 1623.87 491.584ZM2017.88 663C2002.73 663 1988.88 671.56 1982.11 685.111C1968.81 711.708 1988.15 743 2017.88 743H2055.75C2070.9 743 2084.75 734.44 2091.52 720.889C2104.82 694.292 2085.48 663 2055.75 663H2017.88ZM1550.06 683C1531.13 683 1513.81 693.7 1505.34 710.639L1495.34 730.639C1478.72 763.884 1502.9 803 1540.06 803H1861.76C1880.7 803 1898.01 792.3 1906.48 775.361L1916.48 755.361C1933.1 722.116 1908.93 683 1871.76 683H1550.06Z" clip-rule="evenodd" opacity=".45"/><path fill="#F4F8F7" d="M1576.71 441.584C1581.79 431.42 1592.18 425 1603.54 425H1628.46C1650.76 425 1665.27 448.469 1655.29 468.416C1650.21 478.58 1639.82 485 1628.46 485H1603.54C1581.24 485 1566.73 461.531 1576.71 441.584Z"/><path fill="#F4F8F7" d="M618.944 42.1115C625.72 28.5601 639.57 20 654.721 20H760.779C790.514 20 809.854 51.2925 796.556 77.8885C789.78 91.4399 775.93 100 760.779 100H654.721C624.986 100 605.646 68.7075 618.944 42.1115Z"/><path fill="#F4F8F7" d="M1934.94 635.111C1941.72 621.56 1955.57 613 1970.72 613H2008.58C2038.32 613 2057.66 644.293 2044.36 670.889C2037.58 684.44 2023.73 693 2008.58 693H1970.72C1940.99 693 1921.65 661.707 1934.94 635.111Z"/><path fill="#F4F8F7" d="M285 37H405L265 317H145L285 37Z"/><path fill="#F4F8F7" d="M947 220H1067L927 500H807L947 220Z"/><path fill="#F4F8F7" d="M1138 395H1258L1118 675H998L1138 395Z"/><path fill="#F4F8F7" d="M373.18 470.639C381.65 453.7 398.963 443 417.902 443H426.098C463.267 443 487.442 482.116 470.82 515.361L380.82 695.361C372.35 712.3 355.037 723 336.098 723H327.902C290.733 723 266.558 683.884 283.18 650.639L373.18 470.639Z"/><path fill="#F4F8F7" d="M-49.8197 27.6393C-41.3501 10.7001 -24.0369 0 -5.0983 0H509.098C546.267 0 570.442 39.1156 553.82 72.3607L543.82 92.3607C535.35 109.3 518.037 120 499.098 120H-15.0983C-52.2674 120 -76.4422 80.8844 -59.8197 47.6393L-49.8197 27.6393Z"/><path fill="#F4F8F7" d="M1458.18 660.639C1466.65 643.7 1483.96 633 1502.9 633H1824.6C1861.77 633 1885.94 672.116 1869.32 705.361L1859.32 725.361C1850.85 742.3 1833.54 753 1814.6 753H1492.9C1455.73 753 1431.56 713.884 1448.18 680.639L1458.18 660.639Z"/><path fill="#F4F8F7" d="M191.18 652.639C199.65 635.7 216.963 625 235.902 625H1305.6C1342.77 625 1366.94 664.116 1350.32 697.361L1340.32 717.361C1331.85 734.3 1314.54 745 1295.6 745H225.902C188.733 745 164.558 705.884 181.18 672.639L191.18 652.639Z"/><path fill="#F4F8F7" d="M-49.8197 224.639C-41.3501 207.7 -24.0369 197 -5.0983 197H1079.6C1116.77 197 1140.94 236.116 1124.32 269.361L1114.32 289.361C1105.85 306.3 1088.54 317 1069.6 317H-15.0983C-52.2674 317 -76.4422 277.884 -59.8197 244.639L-49.8197 224.639Z"/><path fill="#F4F8F7" d="M678.18 422.639C686.65 405.7 703.963 395 722.902 395H1420.1C1457.27 395 1481.44 434.116 1464.82 467.361L1454.82 487.361C1446.35 504.3 1429.04 515 1410.1 515H712.902C675.733 515 651.558 475.884 668.18 442.639L678.18 422.639Z"/><path fill="#F4F8F7" d="M-71.8197 470.639C-63.3501 453.7 -46.0369 443 -27.0983 443H487.098C524.267 443 548.442 482.116 531.82 515.361L521.82 535.361C513.35 552.3 496.037 563 477.098 563H-37.0983C-74.2674 563 -98.4422 523.884 -81.8197 490.639L-71.8197 470.639Z"/></svg>