<svg xmlns="http://www.w3.org/2000/svg" width="2314" height="1018" fill="none" viewBox="0 0 2314 1018"><path fill="#F4F8F7" fill-rule="evenodd" d="M1748.9 50C1729.96 50 1712.65 60.7001 1704.18 77.6393L1694.18 97.6393C1677.56 130.884 1701.73 170 1738.9 170H1999L1944 280H1567H1447H1145.9C1126.96 280 1109.65 290.7 1101.18 307.639L1091.18 327.639C1074.56 360.884 1098.73 400 1135.9 400H1387L1330 514H385.402C366.463 514 349.15 524.7 340.681 541.639L330.681 561.639C314.058 594.884 338.233 634 375.402 634H991L951 714H586.902C567.963 714 550.65 724.7 542.181 741.639L532.181 761.639C515.558 794.884 539.733 834 576.902 834H1091.1C1110.04 834 1127.35 823.3 1135.82 806.361L1145.82 786.361C1162.44 753.116 1138.27 714 1101.1 714H1071L1111 634H1460.1C1479.04 634 1496.35 623.3 1504.82 606.361L1514.82 586.361C1531.44 553.116 1507.27 514 1470.1 514H1450L1507 400H2077L2048 458H1814.9C1795.96 458 1778.65 468.7 1770.18 485.639L1760.18 505.639C1743.56 538.884 1767.73 578 1804.9 578H2318L2270 674H1409.9C1390.96 674 1373.65 684.7 1365.18 701.639L1355.18 721.639C1338.56 754.884 1362.73 794 1399.9 794H1547L1495 898H945.902C926.963 898 909.65 908.7 901.181 925.639L891.181 945.639C874.558 978.884 898.733 1018 935.902 1018H1633.1C1652.04 1018 1669.35 1007.3 1677.82 990.361L1687.82 970.361C1704.44 937.116 1680.27 898 1643.1 898H1615L1667 794H2367.6C2386.54 794 2403.85 783.3 2412.32 766.361L2422.32 746.361C2437.12 716.762 2419.58 682.511 2389.32 675.353L2438 578H2482.1C2501.04 578 2518.35 567.3 2526.82 550.361L2536.82 530.361C2552.57 498.861 2531.69 462.091 2497.84 458.317L2512 430H2392L2378 458H2168L2197 400H2205.6C2224.54 400 2241.85 389.3 2250.32 372.361L2260.32 352.361C2270.79 331.415 2265.07 308.139 2250.11 293.783L2252 290H2245.67C2237.46 283.785 2227.16 280 2215.6 280H2064L2119 170H2253.1C2272.04 170 2289.35 159.3 2297.82 142.361L2307.82 122.361C2324.44 89.1156 2300.27 50 2263.1 50H1748.9ZM1533.72 70C1518.57 70 1504.72 78.5601 1497.94 92.1115C1484.65 118.707 1503.99 150 1533.72 150H1639.78C1654.93 150 1668.78 141.44 1675.56 127.889C1688.85 101.293 1669.51 70 1639.78 70H1533.72ZM1293.71 96.5836C1298.79 86.4201 1309.18 80 1320.54 80H1345.46C1367.76 80 1382.27 103.469 1372.29 123.416C1367.21 133.58 1356.82 140 1345.46 140H1320.54C1298.24 140 1283.73 116.531 1293.71 96.5836ZM372.708 760.584C377.79 750.42 388.178 744 399.541 744H424.459C446.761 744 461.266 767.469 451.292 787.416C446.21 797.58 435.822 804 424.459 804H399.541C377.24 804 362.735 780.531 372.708 760.584ZM78.9444 552.111C85.7201 538.56 99.5706 530 114.722 530H220.779C250.514 530 269.854 561.293 256.556 587.889C249.78 601.44 235.93 610 220.779 610H114.722C84.9862 610 65.6464 578.708 78.9444 552.111ZM2111.9 834C2092.96 834 2075.65 844.7 2067.18 861.639L2057.18 881.639C2040.56 914.884 2064.73 954 2101.9 954H2616.1C2635.04 954 2652.35 943.3 2660.82 926.361L2670.82 906.361C2687.44 873.116 2663.27 834 2626.1 834H2111.9Z" clip-rule="evenodd" opacity=".45"/><path fill="#F4F8F7" d="M1243.71 46.5836C1248.79 36.4201 1259.18 30 1270.54 30H1295.46C1317.76 30 1332.27 53.4694 1322.29 73.4164C1317.21 83.5799 1306.82 90 1295.46 90H1270.54C1248.24 90 1233.73 66.5306 1243.71 46.5836Z"/><path fill="#F4F8F7" d="M322.708 710.584C327.79 700.42 338.178 694 349.541 694H374.459C396.76 694 411.265 717.469 401.292 737.416C396.21 747.58 385.822 754 374.459 754H349.541C327.24 754 312.735 730.531 322.708 710.584Z"/><path fill="#F4F8F7" d="M1447.94 42.1115C1454.72 28.5601 1468.57 20 1483.72 20H1589.78C1619.51 20 1638.85 51.2925 1625.56 77.8885C1618.78 91.4399 1604.93 100 1589.78 100H1483.72C1453.99 100 1434.65 68.7075 1447.94 42.1115Z"/><path fill="#F4F8F7" d="M28.9443 502.111C35.72 488.56 49.5705 480 64.7214 480H170.779C200.514 480 219.854 511.293 206.556 537.889C199.78 551.44 185.93 560 170.779 560H64.7213C34.9861 560 15.6463 528.707 28.9443 502.111Z"/><path fill="#F4F8F7" d="M1702.94 890.111C1709.72 876.56 1723.57 868 1738.72 868H1844.78C1874.51 868 1893.85 899.293 1880.56 925.889C1873.78 939.44 1859.93 948 1844.78 948H1738.72C1708.99 948 1689.65 916.707 1702.94 890.111Z"/><path fill="#F4F8F7" d="M1397 230H1517L1377 510H1257L1397 230Z"/><path fill="#F4F8F7" d="M2342 380H2462L2322 660H2202L2342 380Z"/><path fill="#F4F8F7" d="M2082 240H2202L2062 520H1942L2082 240Z"/><path fill="#F4F8F7" d="M1527 684H1647L1507 964H1387L1527 684Z"/><path fill="#F4F8F7" d="M999 468H1119L979 748H859L999 468Z"/><path fill="#F4F8F7" d="M1979 60H2099L1959 340H1839L1979 60Z"/><path fill="#F4F8F7" d="M1654.18 27.6393C1662.65 10.7001 1679.96 0 1698.9 0H2213.1C2250.27 0 2274.44 39.1156 2257.82 72.3607L2247.82 92.3607C2239.35 109.3 2222.04 120 2203.1 120H1688.9C1651.73 120 1627.56 80.8844 1644.18 47.6393L1654.18 27.6393Z"/><path fill="#F4F8F7" d="M492.18 691.639C500.65 674.7 517.963 664 536.902 664H1051.1C1088.27 664 1112.44 703.116 1095.82 736.361L1085.82 756.361C1077.35 773.3 1060.04 784 1041.1 784H526.902C489.733 784 465.558 744.884 482.18 711.639L492.18 691.639Z"/><path fill="#F4F8F7" d="M1051.18 257.639C1059.65 240.7 1076.96 230 1095.9 230H2165.6C2202.77 230 2226.94 269.116 2210.32 302.361L2200.32 322.361C2191.85 339.3 2174.54 350 2155.6 350H1085.9C1048.73 350 1024.56 310.884 1041.18 277.639L1051.18 257.639Z"/><path fill="#F4F8F7" d="M1051.18 257.639C1059.65 240.7 1076.96 230 1095.9 230H2165.6C2202.77 230 2226.94 269.116 2210.32 302.361L2200.32 322.361C2191.85 339.3 2174.54 350 2155.6 350H1085.9C1048.73 350 1024.56 310.884 1041.18 277.639L1051.18 257.639Z"/><path fill="#F4F8F7" d="M1720.18 435.639C1728.65 418.7 1745.96 408 1764.9 408H2442.1C2479.27 408 2503.44 447.116 2486.82 480.361L2476.82 500.361C2468.35 517.3 2451.04 528 2432.1 528H1754.9C1717.73 528 1693.56 488.884 1710.18 455.639L1720.18 435.639Z"/><path fill="#F4F8F7" d="M290.68 491.639C299.15 474.7 316.463 464 335.402 464H1420.1C1457.27 464 1481.44 503.116 1464.82 536.361L1454.82 556.361C1446.35 573.3 1429.04 584 1410.1 584H325.402C288.233 584 264.058 544.884 280.68 511.639L290.68 491.639Z"/><path fill="#F4F8F7" d="M1315.18 651.639C1323.65 634.7 1340.96 624 1359.9 624H2327.6C2364.77 624 2388.94 663.116 2372.32 696.361L2362.32 716.361C2353.85 733.3 2336.54 744 2317.6 744H1349.9C1312.73 744 1288.56 704.884 1305.18 671.639L1315.18 651.639Z"/><path fill="#F4F8F7" d="M851.18 875.639C859.65 858.7 876.963 848 895.902 848H1593.1C1630.27 848 1654.44 887.116 1637.82 920.361L1627.82 940.361C1619.35 957.3 1602.04 968 1583.1 968H885.902C848.733 968 824.558 928.884 841.18 895.639L851.18 875.639Z"/><path fill="#F4F8F7" d="M2017.18 811.639C2025.65 794.7 2042.96 784 2061.9 784H2576.1C2613.27 784 2637.44 823.116 2620.82 856.361L2610.82 876.361C2602.35 893.3 2585.04 904 2566.1 904H2051.9C2014.73 904 1990.56 864.884 2007.18 831.639L2017.18 811.639Z"/><path fill="#F4F8F7" d="M1702.94 890.111C1709.72 876.56 1723.57 868 1738.72 868H1844.78C1874.51 868 1893.85 899.293 1880.56 925.889C1873.78 939.44 1859.93 948 1844.78 948H1738.72C1708.99 948 1689.65 916.707 1702.94 890.111Z"/></svg>