<svg width="1040" height="640" viewBox="0 0 1040 640" fill="none" xmlns="http://www.w3.org/2000/svg">
<path d="M20 20V520L121 619.5H1020V120L919 20H780V90H850V120H670L570 20H500V80L440 20H370L303 120H260L160 20H20Z" stroke="white" stroke-width="40"/>
<g clip-path="url(#clip0_1_277)">
<path d="M880 120H1020L919 20H780L880 120Z" fill="white"/>
<path d="M1020 120H880H670L570 20V90V120H540L440 20V90.003V120L260 120L160 20H20V520L120 620H1020V120Z" fill="white"/>
<g clip-path="url(#clip1_1_277)">
<path fill-rule="evenodd" clip-rule="evenodd" d="M780 90V20H920V70V90V450V470V520H780V450H850V90H780Z" fill="black"/>
<path fill-rule="evenodd" clip-rule="evenodd" d="M20 70V20H160V90H90V450H160V520H20V470V450V90V70Z" fill="black"/>
<path fill-rule="evenodd" clip-rule="evenodd" d="M570 20H500V520H570V305H830V235H570V20Z" fill="black"/>
<path fill-rule="evenodd" clip-rule="evenodd" d="M370 20H440V40V520H370V144L265 300H195V240H221.924L370 20.0043V20Z" fill="black"/>
<mask id="mask0_1_277" style="mask-type:alpha" maskUnits="userSpaceOnUse" x="20" y="20" width="245" height="280">
<path d="M265 280L195 300L20 40L90 20L265 280Z" fill="#EA469E"/>
</mask>
<g mask="url(#mask0_1_277)">
<rect x="110" y="110" width="210" height="270" fill="black"/>
</g>
</g>
</g>
<defs>
<clipPath id="clip0_1_277">
<rect width="1000" height="600" fill="white" transform="translate(20 20)"/>
</clipPath>
<clipPath id="clip1_1_277">
<rect width="899" height="500" fill="white" transform="translate(20 20)"/>
</clipPath>
</defs>
</svg>
