<svg xmlns="http://www.w3.org/2000/svg" width="1000" height="600" fill="none" viewBox="0 0 1000 600"><g clip-path="url(#clip0_5_887)"><path fill="#434667" d="M860 100H1000L899 0H760L860 100Z"/><path fill="#434667" d="M1000 100H860H650L550 0V70V100H520L420 0V70.003V100L240 100L140 0H0V500L100 600H1000V100Z"/><g clip-path="url(#clip1_5_887)"><path fill="#FFA4D5" fill-rule="evenodd" d="M760 70V0H900V50V70V430V450V500H760V430H830V70H760Z" clip-rule="evenodd"/><path fill="#FFA4D5" fill-rule="evenodd" d="M0 50V0H140V70H70V430H140V500H0V450V430V70V50Z" clip-rule="evenodd"/><path fill="#ABFF80" fill-rule="evenodd" d="M550 0H480V500H550V285H810V215H550V0Z" clip-rule="evenodd"/><path fill="#C1ECFF" fill-rule="evenodd" d="M350 0H420V20V500H350V124L245 280H175V220H201.924L350 0.00428965V0Z" clip-rule="evenodd"/><mask id="mask0_5_887" style="mask-type:alpha" width="245" height="280" x="0" y="0" maskUnits="userSpaceOnUse"><path fill="#EA469E" d="M245 260L175 280L-4.81641e-05 20L70 -4.4864e-06L245 260Z"/></mask><g mask="url(#mask0_5_887)"><rect width="210" height="270" x="90" y="90" fill="#C1ECFF"/></g></g></g><defs><clipPath id="clip0_5_887"><rect width="1000" height="600" fill="#fff"/></clipPath><clipPath id="clip1_5_887"><rect width="899" height="500" fill="#fff"/></clipPath></defs></svg>