<svg xmlns="http://www.w3.org/2000/svg" width="1954" height="605" fill="none" viewBox="0 0 1954 605"><path fill="#F4F8F7" fill-rule="evenodd" d="M173.904 50C154.966 50 137.653 60.7001 129.183 77.6393L119.183 97.6393C102.56 130.884 126.735 170 163.904 170H237.503L175.003 295H17.9044C-1.03425 295 -18.3474 305.7 -26.817 322.639L-36.817 342.639C-53.4395 375.884 -29.2647 415 7.90437 415H372.003L341.003 477H280.904C261.966 477 244.653 487.7 236.183 504.639L226.183 524.639C209.56 557.884 233.735 597 270.904 597H1340.6C1359.54 597 1376.85 586.3 1385.32 569.361L1395.32 549.361C1411.94 516.116 1387.77 477 1350.6 477H1188L1243 367H1455.1C1474.04 367 1491.35 356.3 1499.82 339.361L1509.82 319.361C1526.44 286.116 1502.27 247 1465.1 247H1303H1183H767.904C748.966 247 731.653 257.7 723.183 274.639L713.183 294.639C696.56 327.884 720.735 367 757.904 367H1123L1068 477H461.003L492.003 415H522.101C541.04 415 558.353 404.3 566.822 387.361L576.822 367.361C593.445 334.116 569.27 295 532.101 295H471.101H462.904H295.003L357.503 170H678.101C697.04 170 714.353 159.3 722.822 142.361L732.822 122.361C749.445 89.1156 725.27 50 688.101 50H173.904ZM776.947 92.1115C783.723 78.5601 797.573 70 812.724 70H872.781C902.517 70 921.856 101.293 908.558 127.889C901.783 141.44 887.932 150 872.781 150H812.724C782.989 150 763.649 118.707 776.947 92.1115ZM1871.71 483.584C1876.79 473.42 1887.18 467 1898.54 467H1923.46C1945.76 467 1960.27 490.469 1950.29 510.416C1945.21 520.58 1934.82 527 1923.46 527H1898.54C1876.24 527 1861.74 503.531 1871.71 483.584ZM1001.71 96.5836C1006.79 86.4201 1017.18 80 1028.54 80H1195.96C1218.26 80 1232.77 103.469 1222.79 123.416C1217.71 133.58 1207.32 140 1195.96 140H1028.54C1006.24 140 991.737 116.531 1001.71 96.5836ZM1503.18 512.639C1511.65 495.7 1528.97 485 1547.9 485H1757.1C1794.27 485 1818.44 524.116 1801.82 557.361L1791.82 577.361C1783.35 594.3 1766.04 605 1747.1 605H1537.9C1500.74 605 1476.56 565.884 1493.18 532.639L1503.18 512.639Z" clip-rule="evenodd" opacity=".45"/><path fill="#F4F8F7" d="M1821.71 433.584C1826.79 423.42 1837.18 417 1848.54 417H1873.46C1895.76 417 1910.27 440.469 1900.29 460.416C1895.21 470.58 1884.82 477 1873.46 477H1848.54C1826.24 477 1811.73 453.531 1821.71 433.584Z"/><path fill="#F4F8F7" d="M726.944 42.1115C733.72 28.5601 747.57 20 762.721 20H822.779C852.514 20 871.854 51.2925 858.556 77.8885C851.78 91.4399 837.93 100 822.779 100H762.721C732.986 100 713.646 68.7075 726.944 42.1115Z"/><path fill="#F4F8F7" d="M79.1803 27.6393C87.6499 10.7001 104.963 0 123.902 0H638.098C675.267 0 699.442 39.1156 682.82 72.3607L672.82 92.3607C664.35 109.3 647.037 120 628.098 120H113.902C76.7326 120 52.5578 80.8844 69.1803 47.6393L79.1803 27.6393Z"/><path fill="#F4F8F7" d="M951.708 46.5836C956.79 36.4201 967.178 30 978.541 30H1145.96C1168.26 30 1182.77 53.4694 1172.79 73.4164C1167.71 83.5799 1157.32 90 1145.96 90H978.541C956.24 90 941.735 66.5306 951.708 46.5836Z"/><path fill="#F4F8F7" d="M1133 197H1253L1113 477H993L1133 197Z"/><path fill="#F4F8F7" d="M237 21H357L217 301H97L237 21Z"/><path fill="#F4F8F7" d="M368.18 272.639C376.65 255.7 393.963 245 412.902 245H421.098C458.267 245 482.442 284.116 465.82 317.361L375.82 497.361C367.35 514.3 350.037 525 331.098 525H322.902C285.733 525 261.558 485.884 278.18 452.639L368.18 272.639Z"/><path fill="#F4F8F7" d="M1453.18 462.639C1461.65 445.7 1478.96 435 1497.9 435H1707.1C1744.27 435 1768.44 474.116 1751.82 507.361L1741.82 527.361C1733.35 544.3 1716.04 555 1697.1 555H1487.9C1450.73 555 1426.56 515.884 1443.18 482.639L1453.18 462.639Z"/><path fill="#F4F8F7" d="M186.18 454.639C194.65 437.7 211.963 427 230.902 427H1300.6C1337.77 427 1361.94 466.116 1345.32 499.361L1335.32 519.361C1326.85 536.3 1309.54 547 1290.6 547H220.902C183.733 547 159.558 507.884 176.18 474.639L186.18 454.639Z"/><path fill="#F4F8F7" d="M673.18 224.639C681.65 207.7 698.963 197 717.902 197H1415.1C1452.27 197 1476.44 236.116 1459.82 269.361L1449.82 289.361C1441.35 306.3 1424.04 317 1405.1 317H707.902C670.733 317 646.558 277.884 663.18 244.639L673.18 224.639Z"/><path fill="#F4F8F7" d="M-76.8197 272.639C-68.3501 255.7 -51.0369 245 -32.0983 245H482.098C519.267 245 543.442 284.116 526.82 317.361L516.82 337.361C508.35 354.3 491.037 365 472.098 365H-42.0983C-79.2674 365 -103.442 325.884 -86.8197 292.639L-76.8197 272.639Z"/></svg>