<svg width="2077" height="605" viewBox="0 0 2077 605" fill="none" xmlns="http://www.w3.org/2000/svg">
<path opacity="0.45" fill-rule="evenodd" clip-rule="evenodd" d="M296.904 50C277.966 50 260.653 60.7001 252.183 77.6393L242.183 97.6393C225.56 130.884 249.735 170 286.904 170H360.503L298.003 295H140.904C121.966 295 104.653 305.7 96.183 322.639L86.183 342.639C69.5605 375.884 93.7353 415 130.904 415H495.003L464.003 477H403.904C384.966 477 367.653 487.7 359.183 504.639L349.183 524.639C332.56 557.884 356.735 597 393.904 597H1463.6C1482.54 597 1499.85 586.3 1508.32 569.361L1518.32 549.361C1534.94 516.116 1510.77 477 1473.6 477H1311L1366 367H1578.1C1597.04 367 1614.35 356.3 1622.82 339.361L1632.82 319.361C1649.44 286.116 1625.27 247 1588.1 247H1426H1306H890.904C871.966 247 854.653 257.7 846.183 274.639L836.183 294.639C819.56 327.884 843.735 367 880.904 367H1246L1191 477H584.003L615.003 415H645.101C664.04 415 681.353 404.3 689.822 387.361L699.822 367.361C716.445 334.116 692.27 295 655.101 295H594.101H585.904H418.003L480.503 170H801.101C820.04 170 837.353 159.3 845.822 142.361L855.822 122.361C872.445 89.1156 848.27 50 811.101 50H296.904ZM899.947 92.1115C906.723 78.5601 920.573 70 935.724 70H995.781C1025.52 70 1044.86 101.293 1031.56 127.889C1024.78 141.44 1010.93 150 995.781 150H935.724C905.989 150 886.649 118.707 899.947 92.1115ZM1994.71 483.584C1999.79 473.42 2010.18 467 2021.54 467H2046.46C2068.76 467 2083.27 490.469 2073.29 510.416C2068.21 520.58 2057.82 527 2046.46 527H2021.54C1999.24 527 1984.74 503.531 1994.71 483.584ZM1124.71 96.5836C1129.79 86.4201 1140.18 80 1151.54 80H1318.96C1341.26 80 1355.77 103.469 1345.79 123.416C1340.71 133.58 1330.32 140 1318.96 140H1151.54C1129.24 140 1114.74 116.531 1124.71 96.5836ZM1626.18 512.639C1634.65 495.7 1651.97 485 1670.9 485H1880.1C1917.27 485 1941.44 524.116 1924.82 557.361L1914.82 577.361C1906.35 594.3 1889.04 605 1870.1 605H1660.9C1623.74 605 1599.56 565.884 1616.18 532.639L1626.18 512.639Z" fill="#F4F8F7"/>
<path d="M1944.71 433.584C1949.79 423.42 1960.18 417 1971.54 417H1996.46C2018.76 417 2033.27 440.469 2023.29 460.416V460.416C2018.21 470.58 2007.82 477 1996.46 477H1971.54C1949.24 477 1934.73 453.531 1944.71 433.584V433.584Z" fill="#F4F8F7"/>
<path d="M849.944 42.1115C856.72 28.5601 870.57 20 885.721 20H945.779C975.514 20 994.854 51.2925 981.556 77.8885V77.8885C974.78 91.4399 960.93 100 945.779 100H885.721C855.986 100 836.646 68.7075 849.944 42.1115V42.1115Z" fill="#F4F8F7"/>
<path d="M202.18 27.6393C210.65 10.7001 227.963 0 246.902 0H761.098C798.267 0 822.442 39.1156 805.82 72.3607L795.82 92.3607C787.35 109.3 770.037 120 751.098 120H236.902C199.733 120 175.558 80.8844 192.18 47.6393L202.18 27.6393Z" fill="#F4F8F7"/>
<path d="M1074.71 46.5836C1079.79 36.4201 1090.18 30 1101.54 30H1268.96C1291.26 30 1305.77 53.4694 1295.79 73.4164V73.4164C1290.71 83.5799 1280.32 90 1268.96 90H1101.54C1079.24 90 1064.73 66.5306 1074.71 46.5836V46.5836Z" fill="#F4F8F7"/>
<path d="M1256 197H1376L1236 477H1116L1256 197Z" fill="#F4F8F7"/>
<path d="M360 21H480L340 301H220L360 21Z" fill="#F4F8F7"/>
<path d="M491.18 272.639C499.65 255.7 516.963 245 535.902 245H544.098C581.267 245 605.442 284.116 588.82 317.361L498.82 497.361C490.35 514.3 473.037 525 454.098 525H445.902C408.733 525 384.558 485.884 401.18 452.639L491.18 272.639Z" fill="#F4F8F7"/>
<path d="M1576.18 462.639C1584.65 445.7 1601.96 435 1620.9 435H1830.1C1867.27 435 1891.44 474.116 1874.82 507.361L1864.82 527.361C1856.35 544.3 1839.04 555 1820.1 555H1610.9C1573.73 555 1549.56 515.884 1566.18 482.639L1576.18 462.639Z" fill="#F4F8F7"/>
<path d="M309.18 454.639C317.65 437.7 334.963 427 353.902 427H1423.6C1460.77 427 1484.94 466.116 1468.32 499.361L1458.32 519.361C1449.85 536.3 1432.54 547 1413.6 547H343.902C306.733 547 282.558 507.884 299.18 474.639L309.18 454.639Z" fill="#F4F8F7"/>
<path d="M796.18 224.639C804.65 207.7 821.963 197 840.902 197H1538.1C1575.27 197 1599.44 236.116 1582.82 269.361L1572.82 289.361C1564.35 306.3 1547.04 317 1528.1 317H830.902C793.733 317 769.558 277.884 786.18 244.639L796.18 224.639Z" fill="#F4F8F7"/>
<path d="M46.1803 272.639C54.6499 255.7 71.9631 245 90.9017 245H605.098C642.267 245 666.442 284.116 649.82 317.361L639.82 337.361C631.35 354.3 614.037 365 595.098 365H80.9017C43.7326 365 19.5578 325.884 36.1803 292.639L46.1803 272.639Z" fill="#F4F8F7"/>
</svg>
